<svg xmlns="http://www.w3.org/2000/svg" width="240" height="240" viewBox="0 0 240 240"><g transform="translate(-48 -48)"><path d="M267.746,254.352l-31.164-31.164,31.164-31.164a9.45,9.45,0,0,0-13.364-13.364l-31.164,31.164L192.053,178.66c-3.666-3.666-9.225-4.2-13.364,0a9.131,9.131,0,0,0,0,13.364l31.164,31.164-31.164,31.164a9.137,9.137,0,0,0,0,13.364,9.387,9.387,0,0,0,13.364,0l31.164-31.164,31.164,31.164a9.494,9.494,0,0,0,13.364,0A9.387,9.387,0,0,0,267.746,254.352Z" transform="translate(-55.215 -55.185)"/><path d="M168,64.154a103.805,103.805,0,1,1-73.442,30.4A103.159,103.159,0,0,1,168,64.154M168,48A120,120,0,1,0,288,168,119.982,119.982,0,0,0,168,48Z" transform="translate(0 0)"/></g></svg>