<?xml version="1.0" encoding="iso-8859-1"?>
<!-- Generator: Adobe Illustrator 19.0.0, SVG Export Plug-In . SVG Version: 6.00 Build 0)  -->
<svg version="1.1" id="Capa_1" xmlns="http://www.w3.org/2000/svg" xmlns:xlink="http://www.w3.org/1999/xlink" x="0px" y="0px"
	 viewBox="0 0 512.108 512.108" style="enable-background:new 0 0 512.108 512.108;" xml:space="preserve">
<path style="fill:#90A4AE;" d="M347.062,25.462C333.002,9.331,312.653,0.066,291.254,0.054h-70.4
	c-21.399,0.013-41.747,9.277-55.808,25.408c-2.952,3.373-3.48,8.231-1.323,12.16c2.014,3.394,5.654,5.489,9.6,5.525l72.533,269.013
	c1.545,5.685,7.406,9.041,13.091,7.496c3.651-0.992,6.504-3.845,7.496-7.496l72.533-269.013c3.918-0.135,7.515-2.205,9.6-5.525
	C350.683,33.654,350.077,28.792,347.062,25.462z"/>
<g>
	<path style="fill:#455A64;" d="M127.094,198.304L69.708,72.011c-2.456-5.355-8.788-7.705-14.142-5.249
		c-1.546,0.709-2.899,1.777-3.948,3.115c-6.294,7.989-10.173,17.612-11.179,27.733L0.054,500.32
		c-0.589,5.861,3.685,11.091,9.546,11.68c0.372,0.037,0.746,0.055,1.12,0.053h74.667c5.476,0.031,10.086-4.09,10.667-9.536
		l32-298.667C128.237,201.95,127.905,200.034,127.094,198.304z"/>
	<path style="fill:#455A64;" d="M471.67,97.462c-1.21-12.173-6.591-23.554-15.232-32.213c-2.505-2.525-6.115-3.616-9.6-2.901
		c-3.503,0.695-6.426,3.098-7.787,6.4l-54.187,129.92c-0.698,1.634-0.976,3.415-0.811,5.184l32,298.667
		c0.58,5.446,5.19,9.567,10.667,9.536h74.667c5.891,0.03,10.69-4.722,10.72-10.613c0.002-0.374-0.016-0.748-0.053-1.12
		L471.67,97.462z"/>
</g>
<path style="fill:#607D8B;" d="M456.588,65.504c-4.265-4.51-9.328-8.191-14.933-10.859l-45.141-21.717
	c-18.319-6.737-37.601-10.489-57.109-11.115c-4.353-0.238-8.391,2.267-10.112,6.272c-1.779,3.955-0.986,8.594,2.005,11.733
	c3.07,3.287,5.623,7.02,7.573,11.072l22.464,44.8l-105.28,191.552L150.753,95.819l22.464-44.8c1.95-4.052,4.504-7.785,7.573-11.072
	c2.991-3.14,3.784-7.778,2.005-11.733c-1.731-3.997-5.763-6.497-10.112-6.272c-19.838,0.655-39.438,4.539-58.027,11.499
	L70.113,54.774c-7.331,3.571-13.724,8.81-18.667,15.296c-2.346,3.116-2.804,7.263-1.195,10.816l56.469,124.139v275.029
	c0,4.037,2.279,7.728,5.888,9.536c1.835,0.917,46.059,22.464,143.445,22.464S397.665,490.507,399.5,489.59
	c3.609-1.808,5.888-5.499,5.888-9.536v-275.2l53.333-128C460.296,72.98,459.462,68.542,456.588,65.504z"/>
<g>
	<path style="fill:#455A64;" d="M224.054,501.387c-0.63,0-1.258-0.057-1.877-0.171c-5.794-1.029-9.66-6.556-8.64-12.352l32-181.333
		c0.803-5.836,6.185-9.916,12.021-9.114c5.836,0.803,9.916,6.185,9.114,12.021c-0.037,0.27-0.085,0.538-0.142,0.805l-32,181.333
		C233.63,497.662,229.218,501.373,224.054,501.387z"/>
	<circle style="fill:#455A64;" cx="288.054" cy="373.387" r="10.667"/>
	<circle style="fill:#455A64;" cx="266.721" cy="437.387" r="10.667"/>
	<path style="fill:#455A64;" d="M382.924,91.275l-24.96-49.92c-2.904-5.939-6.679-11.411-11.2-16.235
		c-1.627-1.704-3.772-2.822-6.101-3.179c-3.295-0.439-6.618-0.625-9.941-0.555c-4.817,0.008-9.03,3.242-10.283,7.893
		l-74.667,277.333c-1.536,5.687,1.829,11.543,7.516,13.079c4.751,1.283,9.764-0.85,12.132-5.165l117.333-213.333
		C384.438,98.118,384.502,94.409,382.924,91.275z"/>
	<path style="fill:#455A64;" d="M266.337,306.614L191.67,29.28c-1.252-4.651-5.466-7.886-10.283-7.893
		c-3.323-0.07-6.647,0.115-9.941,0.555c-2.329,0.357-4.474,1.474-6.101,3.179c-4.521,4.824-8.296,10.295-11.2,16.235l-24.96,49.92
		c-1.564,3.131-1.492,6.83,0.192,9.899L246.71,314.507c2.835,5.164,9.319,7.052,14.483,4.217c4.314-2.368,6.448-7.381,5.165-12.132
		L266.337,306.614z"/>
</g>
<g>
</g>
<g>
</g>
<g>
</g>
<g>
</g>
<g>
</g>
<g>
</g>
<g>
</g>
<g>
</g>
<g>
</g>
<g>
</g>
<g>
</g>
<g>
</g>
<g>
</g>
<g>
</g>
<g>
</g>
</svg>
