<?xml version="1.0" encoding="iso-8859-1"?>
<!-- Generator: Adobe Illustrator 19.0.0, SVG Export Plug-In . SVG Version: 6.00 Build 0)  -->
<svg version="1.1" id="Capa_1" xmlns="http://www.w3.org/2000/svg" xmlns:xlink="http://www.w3.org/1999/xlink" x="0px" y="0px"
	 viewBox="0 0 512 512" style="enable-background:new 0 0 512 512;" xml:space="preserve">
<path style="fill:#2196F3;" d="M383.68,114.752l-21.013-84.075V10.667C362.667,4.776,357.891,0,352,0H160
	c-5.891,0-10.667,4.776-10.667,10.667v20.011l-21.013,84.053c-0.265,1.045-0.373,2.123-0.32,3.2l21.333,384
	c0.317,5.657,5.001,10.078,10.667,10.069h74.667c5.72,0.005,10.426-4.503,10.667-10.219L256,257.067v-0.619l10.667,245.333
	c0.24,5.715,4.946,10.224,10.667,10.219H352c5.665,0.009,10.349-4.413,10.667-10.069l21.333-384
	C384.051,116.861,383.944,115.79,383.68,114.752z"/>
<g>
	<path style="fill:#455A64;" d="M202.667,42.667C196.776,42.667,192,37.891,192,32V10.667C192,4.776,196.776,0,202.667,0
		s10.667,4.776,10.667,10.667V32C213.334,37.891,208.558,42.667,202.667,42.667z"/>
	<path style="fill:#455A64;" d="M309.334,42.667c-5.891,0-10.667-4.776-10.667-10.667V10.667C298.667,4.776,303.443,0,309.334,0
		C315.225,0,320,4.776,320,10.667V32C320,37.891,315.225,42.667,309.334,42.667z"/>
</g>
<g>
</g>
<g>
</g>
<g>
</g>
<g>
</g>
<g>
</g>
<g>
</g>
<g>
</g>
<g>
</g>
<g>
</g>
<g>
</g>
<g>
</g>
<g>
</g>
<g>
</g>
<g>
</g>
<g>
</g>
</svg>
