<?xml version="1.0" encoding="iso-8859-1"?>
<!-- Generator: Adobe Illustrator 19.0.0, SVG Export Plug-In . SVG Version: 6.00 Build 0)  -->
<svg version="1.1" id="Capa_1" xmlns="http://www.w3.org/2000/svg" xmlns:xlink="http://www.w3.org/1999/xlink" x="0px" y="0px"
	 viewBox="0 0 512.027 512.027" style="enable-background:new 0 0 512.027 512.027;" xml:space="preserve">
<g>
	<path style="fill:#B0BEC5;" d="M494.286,144.952c-1.69-35.736-19.691-68.718-48.832-89.472c-4.792-3.427-11.454-2.321-14.881,2.47
		c-0.644,0.9-1.143,1.895-1.481,2.948l-44.587,138.453c-0.531,1.556-0.699,3.212-0.491,4.843l42.667,298.667
		c0.759,5.293,5.32,9.206,10.667,9.152h64c5.891,0.007,10.673-4.762,10.68-10.653c0-0.182-0.004-0.365-0.013-0.547L494.286,144.952z
		"/>
	<path style="fill:#B0BEC5;" d="M127.523,199.501L84.003,60.195c-1.759-5.622-7.742-8.755-13.365-6.996
		c-1.038,0.325-2.02,0.806-2.913,1.428c-29.643,20.849-48.07,54.156-49.984,90.347L0.014,500.813
		c-0.295,5.884,4.236,10.892,10.12,11.187c0.182,0.009,0.364,0.014,0.547,0.013h64c5.347,0.054,9.908-3.859,10.667-9.152
		l42.667-298.667C128.202,202.613,128.035,201.009,127.523,199.501z"/>
</g>
<path style="fill:#CFD8DC;" d="M445.539,55.587c-8.7-6.3-18.254-11.329-28.373-14.933l-20.779-7.723
	c-15.691-5.664-32.033-9.327-48.64-10.901c-5.865-0.554-11.069,3.751-11.623,9.616c-0.201,2.131,0.243,4.274,1.276,6.149
	c2.623,4.762,3.982,10.116,3.947,15.552v12.8l-85.333,18.965L170.68,66.147v-12.8c-0.022-5.44,1.352-10.794,3.989-15.552
	c2.844-5.159,0.968-11.647-4.191-14.491c-1.89-1.042-4.051-1.486-6.199-1.274c-16.656,1.55-33.048,5.199-48.789,10.859L94.99,40.547
	c-9.736,3.43-18.948,8.198-27.371,14.165c-3.753,2.676-5.362,7.461-3.989,11.861l43.051,137.728v275.712
	c0,4.037,2.279,7.728,5.888,9.536c1.835,0.917,46.059,22.464,143.445,22.464s141.611-21.547,143.445-22.464
	c3.609-1.808,5.888-5.499,5.888-9.536V204.365l44.075-136.875C450.837,63.1,449.271,58.298,445.539,55.587z"/>
<path style="fill:#2196F3;" d="M266.488,136.717c-1.113-5.785-6.704-9.573-12.489-8.46c-4.285,0.824-7.636,4.175-8.46,8.46
	l-32,170.667c-0.553,2.936,0.151,5.97,1.941,8.363l32,42.667c3.535,4.713,10.221,5.668,14.933,2.133
	c0.809-0.606,1.527-1.325,2.133-2.133l32-42.667c1.79-2.393,2.494-5.426,1.941-8.363L266.488,136.717z"/>
<path style="fill:#90A4AE;" d="M355.939,27.341c-9.534-16.778-27.295-27.195-46.592-27.328H202.68
	c-19.297,0.133-37.058,10.55-46.592,27.328c-1.977,3.435-1.886,7.682,0.235,11.029c2.083,3.381,5.901,5.291,9.856,4.928
	c3.755-0.299,7.502-0.484,11.243-0.555l71.616,61.376c3.992,3.414,9.875,3.414,13.867,0l71.68-61.44
	c3.755,0.071,7.502,0.256,11.243,0.555c3.954,0.358,7.77-1.55,9.856-4.928C357.785,34.979,357.883,30.764,355.939,27.341z"/>
<path style="fill:#1976D2;" d="M292.088,64.824c-3.985-1.654-8.574-0.745-11.627,2.304l-24.448,24.469l-24.448-24.469
	c-4.16-4.171-10.914-4.179-15.085-0.019c-2.011,2.006-3.139,4.731-3.134,7.571v21.333c0,2.308,0.749,4.554,2.133,6.4l32,42.667
	c3.535,4.713,10.221,5.668,14.933,2.133c0.809-0.606,1.527-1.325,2.133-2.133l32-42.667c1.385-1.846,2.133-4.092,2.133-6.4V74.68
	C298.68,70.363,296.077,66.473,292.088,64.824z"/>
<g>
	<path style="fill:#B0BEC5;" d="M356.003,27.491c-1.738-3.15-4.946-5.211-8.533-5.483c-5.575-0.441-11.172-0.661-16.789-0.661
		c-2.545,0.006-5.004,0.921-6.933,2.581l-74.667,64c-4.465,3.842-4.97,10.577-1.128,15.043c2.021,2.349,4.963,3.702,8.061,3.709
		c0.775-0.004,1.547-0.09,2.304-0.256l96-21.333c4.884-1.08,8.361-5.409,8.363-10.411V53.347
		C362.673,44.302,360.376,35.407,356.003,27.491z"/>
	<path style="fill:#B0BEC5;" d="M262.947,87.928l-74.667-64c-1.929-1.66-4.388-2.576-6.933-2.581c-5.618,0-11.236,0.22-16.853,0.661
		c-3.587,0.272-6.795,2.333-8.533,5.483c-4.35,7.923-6.626,16.817-6.613,25.856V74.68c0.002,5.002,3.479,9.33,8.363,10.411
		l96,21.333c0.757,0.166,1.529,0.252,2.304,0.256c5.891-0.013,10.656-4.8,10.643-10.691
		C266.649,92.891,265.295,89.949,262.947,87.928z"/>
</g>
<g>
</g>
<g>
</g>
<g>
</g>
<g>
</g>
<g>
</g>
<g>
</g>
<g>
</g>
<g>
</g>
<g>
</g>
<g>
</g>
<g>
</g>
<g>
</g>
<g>
</g>
<g>
</g>
<g>
</g>
</svg>
